<?xml version="1.0" encoding="UTF-8"?>
<svg id="Layer_1" data-name="Layer 1" xmlns="http://www.w3.org/2000/svg" viewBox="0 0 1398.24 861.68">
  <defs>
    <style>
      .cls-1 {
        fill: #231f20;
      }
    </style>
  </defs>
  <path class="cls-1" d="M1193.46,294.57h65.6c-20.83,79.07-162.33,145.13-355.78,172.84,164.03-30.25,280.31-95.82,290.18-172.84Z"/>
  <path class="cls-1" d="M491.69,466.79c-191.27-28.08-330.84-93.73-351.51-172.22h64.61c9.8,76.51,124.59,141.72,286.9,172.22Z"/>
  <path class="cls-1" d="M680.07,67.34v15.38c-260.85,4.01-470.03,90.13-475.84,196.64h-66.53c-.12-1.67-.17-3.35-.17-5.04,0-111.97,241.16-203.19,542.54-206.98Z"/>
  <path class="cls-1" d="M702.96,67.22v15.36c-1.28-.01-2.56-.01-3.84-.01s-2.56,0-3.84.01v-15.36c1.45,0,2.89,0,4.34,0,1.11,0,2.23,0,3.34,0Z"/>
  <path class="cls-1" d="M1261.71,274.32c0,1.68-.05,3.37-.17,5.04h-67.53c-5.81-106.51-214.99-192.63-475.84-196.64v-15.4c301.84,3.61,543.54,94.91,543.54,207Z"/>
  <path class="cls-1" d="M1398.24,271.44v7.93h-596.26c-54.69,0-99.02,44.33-99.02,99.02v170.25h-7.68v-170.26c0-54.69-44.33-99.02-99.02-99.02H0v-7.93h596.26c54.69,0,99.02-44.33,99.02-99.02V0h7.68v172.42c0,54.69,44.33,99.02,99.02,99.02h596.26Z"/>
  <g>
    <path class="cls-1" d="M131.57,602.52h39.07v167.86h-39.07v-17.54c-17.14,19.94-38.28,22.73-50.24,22.73-51.83,0-81.34-43.06-81.34-89.31,0-54.62,37.48-88.11,81.74-88.11,12.36,0,33.89,3.19,49.84,23.92v-19.54ZM39.87,687.04c0,29.11,18.34,53.43,46.65,53.43,24.72,0,47.45-17.94,47.45-53.03s-22.73-54.22-47.45-54.22c-28.31,0-46.65,23.92-46.65,53.83Z"/>
    <path class="cls-1" d="M246.8,861.68h-39.07v-259.16h39.07v18.34c14.35-17.14,33.09-22.73,49.84-22.73,44.26,0,81.74,33.89,81.74,87.32,0,56.62-41.47,90.11-81.34,90.11-9.17,0-32.69-3.19-50.24-24.72v110.84ZM244.41,687.44c0,35.09,22.73,53.03,47.45,53.03,28.31,0,46.65-24.32,46.65-53.43s-18.34-53.83-46.65-53.83c-24.72,0-47.45,17.54-47.45,54.22Z"/>
    <path class="cls-1" d="M406.68,602.52h39.07v15.15c4.39-5.18,10.77-10.77,16.35-13.96,7.58-4.39,15.15-5.58,23.92-5.58,9.57,0,19.94,1.59,30.7,7.97l-15.95,35.49c-8.77-5.58-15.95-5.98-19.94-5.98-8.37,0-16.75,1.2-24.32,9.17-10.77,11.56-10.77,27.51-10.77,38.67v86.92h-39.07v-167.86Z"/>
    <path class="cls-1" d="M675.8,732.1c-7.18,12.76-17.54,23.92-28.31,30.7-13.56,8.77-31.5,12.76-49.44,12.76-22.33,0-40.67-5.58-56.62-21.53s-24.72-39.07-24.72-64.19,9.17-51.03,26.71-68.98c13.95-13.96,32.3-22.73,56.22-22.73,26.71,0,43.86,11.56,53.83,21.93,21.53,22.33,23.52,53.43,23.52,70.97v4.78h-120.41c.8,11.96,5.98,25.52,14.35,33.89,9.17,9.17,20.33,10.76,29.9,10.76,10.77,0,18.74-2.39,26.71-8.37,6.78-5.18,11.96-11.96,15.55-18.34l32.69,18.34ZM637.13,663.92c-1.59-9.17-5.98-17.14-11.96-22.73-5.18-4.78-13.56-9.57-26.32-9.57-13.56,0-22.33,5.58-27.51,10.77-5.58,5.18-9.97,13.16-11.96,21.53h77.75Z"/>
    <path class="cls-1" d="M704.91,602.52h39.07v15.55c16.75-18.74,35.88-19.94,45.45-19.94,31.1,0,44.26,15.55,49.44,22.73,6.38,9.17,10.37,20.73,10.37,46.65v102.87h-39.07v-93.3c0-42.66-15.95-43.86-30.7-43.86-17.54,0-35.49,2.39-35.49,56.62v80.54h-39.07v-167.86Z"/>
    <path class="cls-1" d="M1036.62,732.1c-7.18,12.76-17.54,23.92-28.31,30.7-13.56,8.77-31.5,12.76-49.44,12.76-22.33,0-40.67-5.58-56.62-21.53-15.95-15.95-24.72-39.07-24.72-64.19s9.17-51.03,26.71-68.98c13.95-13.96,32.29-22.73,56.22-22.73,26.71,0,43.86,11.56,53.83,21.93,21.53,22.33,23.52,53.43,23.52,70.97v4.78h-120.41c.8,11.96,5.98,25.52,14.35,33.89,9.17,9.17,20.33,10.76,29.9,10.76,10.76,0,18.74-2.39,26.71-8.37,6.78-5.18,11.96-11.96,15.55-18.34l32.69,18.34ZM997.95,663.92c-1.59-9.17-5.98-17.14-11.96-22.73-5.18-4.78-13.56-9.57-26.32-9.57-13.56,0-22.33,5.58-27.51,10.77-5.58,5.18-9.97,13.16-11.96,21.53h77.75Z"/>
    <path class="cls-1" d="M1105.2,602.52v96.09c0,9.97.4,21.53,7.18,30.3,5.18,6.78,14.35,11.56,25.52,11.56s20.33-4.78,25.52-11.56c6.78-8.77,7.18-20.33,7.18-30.3v-96.09h39.07v97.28c0,21.53-2.39,39.47-17.94,55.02-15.15,15.15-35.88,20.73-54.62,20.73-17.14,0-37.88-5.18-53.03-20.73-15.55-15.55-17.94-33.49-17.94-55.02v-97.28h39.07Z"/>
    <path class="cls-1" d="M1397.05,732.1c-7.18,12.76-17.54,23.92-28.31,30.7-13.56,8.77-31.5,12.76-49.44,12.76-22.33,0-40.67-5.58-56.62-21.53s-24.72-39.07-24.72-64.19,9.17-51.03,26.71-68.98c13.95-13.96,32.3-22.73,56.22-22.73,26.71,0,43.86,11.56,53.83,21.93,21.53,22.33,23.52,53.43,23.52,70.97v4.78h-120.41c.8,11.96,5.98,25.52,14.35,33.89,9.17,9.17,20.33,10.76,29.9,10.76,10.76,0,18.74-2.39,26.71-8.37,6.78-5.18,11.96-11.96,15.55-18.34l32.69,18.34ZM1358.37,663.92c-1.59-9.17-5.98-17.14-11.96-22.73-5.18-4.78-13.56-9.57-26.32-9.57-13.56,0-22.33,5.58-27.51,10.77-5.58,5.18-9.97,13.16-11.96,21.53h77.75Z"/>
  </g>
</svg>